<svg id="Layer_1" data-name="Layer 1" xmlns="http://www.w3.org/2000/svg" viewBox="0 0 360.91 552.84"><defs><style>.cls-1{fill:#fff;}</style></defs><path class="cls-1" d="M380.7,141.88l-1.13-6.8.12-2-.39.66c0-.09,0-.19-.08-.29l-2.41-6a3.38,3.38,0,0,0-2.54-2.07L367,124.12a3.38,3.38,0,0,0-2.12.31l-3.25,1.64a1.85,1.85,0,0,0-.33.21l-1-2,.34,2.57-3.52,3.48a3.45,3.45,0,0,0-.78,1.21l-9.11,24.19-10.49,26.73a.36.36,0,0,0,0,.09l0,.05v.11L332.72,195a3.65,3.65,0,0,1-.14.35L320,220l-.36-.31.23.58-.07.13-.09.19-14.31,32.84a2.38,2.38,0,0,1-3.77.83L299,251.85l0-.06.24-.12h-.3l-.77-1.87a2.46,2.46,0,0,1,.12-.6L320,189.6a2.5,2.5,0,0,0,.09-.25l16.41-59.18,10.46-38c0-.06,0-.12,0-.18l5-22.76a3.38,3.38,0,0,0-.25-2.17l-3.09-6.53a3.58,3.58,0,0,0-.79-1.06l-5.51-5,.51-1.9-1.14,1.38a3.36,3.36,0,0,0-1.46-.54l-12.92-1.54a3.31,3.31,0,0,0-2.42.64l-6.76,5.05A3.32,3.32,0,0,0,317,59.23l-5.65,18.34a1,1,0,0,0-.06.22l-5,21.14-7.84,26.69-8.61,20.19-10.73,24a3.88,3.88,0,0,0-.21.63l-.45,2-.15.2.08.12L275.81,184a1.55,1.55,0,0,1-.07.23L262.8,223.12a2.29,2.29,0,0,1-.79,1.12l-.82.64a2.38,2.38,0,0,1-2.58.23l-2.79-1.48a2.41,2.41,0,0,1-1.23-1.71,2.28,2.28,0,0,1,0-.64l6-58.6a.88.88,0,0,1,0-.17l2-11.56,1.54-9.09L273.25,101a1.21,1.21,0,0,1,.05-.18l7.84-25.44a4.88,4.88,0,0,0,.12-.55l2.14-15.92,0-.18,4.34-20.27a3.34,3.34,0,0,0,0-1.26l-1.15-6.9a3.4,3.4,0,0,0-.51-1.3l-5.52-8.37a3.38,3.38,0,0,0-2.25-1.47l-13.63-2.32a3.39,3.39,0,0,0-3,1L249.26,30.75a3.42,3.42,0,0,0-.86,1.57L234.59,90.67l-1.27,4.25-.06.06v.12L218,146.36a46.94,46.94,0,0,0-1.84,10l-4.54,61.24a2.33,2.33,0,0,1-.88,1.67,2.37,2.37,0,0,1-1.83.51l-2.55-.36a2.39,2.39,0,0,1-1.88-1.47l-.82-45.9.09,0-.09-.33.78-21.65a1.94,1.94,0,0,1,0-.24L208.77,118h0l0-.37.53-3.85a1.94,1.94,0,0,0,0-.24L212,71.28a3.85,3.85,0,0,0,0-.48l0,0,0-.2.09-1.24-.25.24-2.36-14.16a3.41,3.41,0,0,0-.55-1.37l-5.62-8.13-.06-.11-.06,0a3.3,3.3,0,0,0-1.27-1l-7.62-3.43-.23-.11h0a3.37,3.37,0,0,0-3.17.48l-6.72,5.06,0-.85-.49.79-.5-1.21-.08,2-.14.09,0,.08a3.06,3.06,0,0,0-.58.71l-4.21,7.12-.11-2.6L177.34,57l0,.06v0A3.91,3.91,0,0,0,177,58l-10.68,57.11-.07.39h0l-.47,2.5,0,.21-5.66,46.61a1.85,1.85,0,0,0,0,.23l-1.63,29.44L155.94,231l-.19.23.14.14-4.71,41.55a2.2,2.2,0,0,1-.13.52l-14.24,40.23-.57,1.6a2.38,2.38,0,0,1-4.1.69h0l-.09-.11-21-26.21a2.26,2.26,0,0,1-.4-.73L103,266.44l-7.87-13.55a37.69,37.69,0,0,0-4-5l-20-14.58c-.11-.07-17.38-8.34-18-8.48l-14.7-2.74c-.14,0-.28-.07-2.77.35l0-.12-.34.14-.9-.49.22.68A30.82,30.82,0,0,0,25.44,226l-4.1,2.29a1.73,1.73,0,0,0-1.36.94c-.46,1,.3,2.45,1.18,3.84L32.51,251l7.42,7.09.81.81c.5.51,1.34,1.34,1.45,1.44l0,0,11.13,22.33,3.12,6.56.28.88.08-.11,9.38,19.71c.11.29,3.22,9,3.39,9.44l11,24.69L87,363.6c0,.06.22.68.53,1.67,5.2,16.46,5.32,16.61,5.43,16.75l40.22,52.79h0l.62.77h0l25.33,32,1.28,1.21h0l9.38,9c.39.73,2.1,8,2.14,8.51l1,47h0a3.42,3.42,0,0,0,.09.63l7.9,33.15a3.37,3.37,0,0,0,3.28,2.6h.22l134.11-8.49a3.3,3.3,0,0,0,2.91-2.13l.58,1.1-.36-2.81-7.14-59.86a2.57,2.57,0,0,1,0-.48l1.35-16.81a2.7,2.7,0,0,1,.07-.41l4.57-17.52a2.82,2.82,0,0,0,.07-.31l2.42-14.66,2.62-22.58c0-.1,0-.2.05-.3l5-20.27a3.52,3.52,0,0,0,.09-.64l1.39-28.1.88-29.24.77-2.11-.73.75.32-11,3.38.26-3-1,.75-.91-1.06.4L335,303c0-.12,0-.23,0-.34l4.1-20.5c0-.09.05-.18.08-.28l7.05-21.51,6.27-20.82.06-.16,1.45-3.81,10.11-25.08c.05-.12.09-.24.13-.36l4.91-17.77,7.49-22.48a2.75,2.75,0,0,0,.11-.41l.78-3.9.23.64.14-2.47,2.45-12.21a3.19,3.19,0,0,0,.06-.53l.33-8.4A3.13,3.13,0,0,0,380.7,141.88Zm-4.59-13.46,2.18,5.39a3.23,3.23,0,0,1,.14.51l.12.69-6.73,11.43L366,135.25Zm-14-1.45,3.25-1.65a2.4,2.4,0,0,1,1.49-.21l7.25,1.29a2.36,2.36,0,0,1,1.6,1.1l-10.16,6.86-3.74-7.17A1.6,1.6,0,0,1,362.1,127Zm-1.31,1.13,2.57,19.28L358,130.83Zm-3.54,3.8s0-.05,0-.08l6.31,19.6L353.06,143ZM352.69,144l10,7.93-12-2.44Zm-4.55,12.1,2.13-5.67,13.35,2.72-25.05,27.36Zm-10.54,27,25.79-28.16-16.53,50.33-12.51,4.24Zm-3.93,12.21,2.3-7.2-2,16.33-.44-8.77C333.58,195.5,333.63,195.38,333.67,195.26Zm-1.05,2.18.56,11.14-.31-.41.35,1.26,0,.73-.09.76.13,0L334.36,232l-13.55-11.32Zm-12.23,24.13,19.74,50.48-22.37-6.49-7.92-19.76Zm-22.17,31L301,255a3.37,3.37,0,0,0,5.35-1.17l2.94-6.75,7.74,19.3,22.47,6.52-29.75,12.93L297.8,252.34l.17-.08A3.07,3.07,0,0,0,298.22,252.52Zm-117-130.41V122l.11-2.16,0,.06.07-1.71,15.22-30.37L188.37,119l-.2-.71-.27,2.49-.19.71.12,0-.45,4.17-8,32.42,1.82-35.13.08,0Zm20.86,64.16,1.17,30.9a3.42,3.42,0,0,0,.18.91l0,2.4L184.35,253.7l18.07-76.88-.33,9.2Zm-19.73-4.86,6-55.63.44-1.76,13.71,47.44Zm4.22-48.4-5.41,50.11,20.18-10-43.58,55.48,21.3-65.25v0h0Zm15.52,40.8-18.88,80.33L176.79,206Zm-19.32,84.61.42-.72,22.34,21.57,0-1,26.69-28.68L251.59,290l-22.44-18,27.62,55.69.13.26,73.65,5.63L236.4,369.47l-20.66-73.9-61.2-29,23.56-.7-19.24-31.63,23.75,22.93Zm54.61-104.75L249.57,117l.44,18-15.85,31.38Zm-.12-2.8-1.85-34.34,11.24,6ZM250.06,137l.82,33.55-27,47.48-5.45,9.58L233,170.78Zm-18.81,70.11,18.22-32.07-17.39,72.59-14.43-16.58Zm.42,41.57L206,276.29l11.3-44.12ZM278,260.77l25.09,61.75-19.2-6.59-3.23-2.59-14.28-62.15,28.83,1.3Zm18.78-7.93L303.12,320l-23.87-58.75ZM283.3,316.76l.07.05,20.19,6.94,1.2,2.94-.25-2.62,24.44,8.4L257.54,327l-25.48-51.37,20.53,16.47.31.67.19-.26Zm-30.23-26-19.16-40,28.83,26.38Zm78.14,43.61-67.38,81.06-27-45.09ZM304.41,323l-6.35-67,10.59,29.71-.17-.05.51,1,.17.47,0,0,22.61,45.25ZM297.5,248.3l-16-38.54,20,27.44ZM302,236.07,280.25,206.3l38.44-16Zm17.18-47-15.71,6.53,24.18-37.08Zm-2.27-66,6.66-25.85,6,16.42-12.18,9.9.13-1.24ZM317,127l10.47,30-16.61,25.48Zm11.28,29.28-9.77-28,12.4,18.52Zm3-10.75-13.85-20.68,12.29-10,1.58,30.59Zm2.91-10.5-2.05,7.38-1.3-25.26,4.72,12.94Zm1.83-6.6-5.36-14.68,0-.91-.22.18L324,95.65l8.38-9.5.16.93,4,39.17Zm-3.61-48.64-1.81-10.93,10.19-12.16-7.46,27.61-.15.07Zm13.68,12-8.75,31.85-3.68-36.1.05.08-.06-.37,17.08-16.6Zm-4-36.22,5.13,4.66a2.35,2.35,0,0,1,.55.74l3.1,6.53a2.3,2.3,0,0,1,.19,1.39L334,85.39l.41-1.53.05-.06,0,0Zm-1.92-1.14a2.13,2.13,0,0,1,.91.33L330.33,67.52,327.9,52.9Zm-21.38,4,6.75-5a2.43,2.43,0,0,1,1.34-.46l2.84,17,2.1,12.64L318,59.35A2.32,2.32,0,0,1,318.78,58.32ZM312.23,78s0-.11,0-.15l5.32-17.27L332,84.78l-23.55,9.29Zm-5,21.32,1-4.09,22.81-9-7.34,8.33-.26-.72L323,95.3l-21.92,24.86Zm-6.78,23.09,22-25L316,122.67l-1-1.49.8,2.28-.35,1.34-15.81.47Zm-9.7,23.82,7.8-17.49a3.16,3.16,0,0,0,.16-.43l.6-2.05,15.46-.46-33.87,43.51ZM316,125.78h0l-6.37,57.5L291,190.44l-11.5-17.73Zm-39.35,58.81a1.92,1.92,0,0,0,.09-.32L279.13,174l11.49,17.71,18.9-7.23-7.72,11.84-22.05,9.16-.11-.26-.46.49-.48.2.13.18-14.36,15.24Zm-14.88,41.08.82-.64a3.34,3.34,0,0,0,1.07-1.47L279.31,207l17.79,43a4,4,0,0,0,0,.49l-.82-2.31.32,3.43-31.55-1.43,14.29,62.2-25.7-20.64,10.4-14.63-31-28.32Zm-6.46-1.16,2.79,1.49a3.57,3.57,0,0,0,1.22.36l-23.65,19L253.92,223A3.35,3.35,0,0,0,255.35,224.51Zm7.85-82.85-1.54,9.12-2,11.55a2,2,0,0,0,0,.24l-6,58.61a3.64,3.64,0,0,0,0,.66l-20.24,24.85,17.91-74.75.56-1,.07-.12,0-1.38.24-1-.26.45-1.32-54.53,21.56-12.64ZM250.89,113l17.52-52.8,3.88,40.25Zm21.84-18.4L269.2,57.94v0l0-.14,8.22-32.6Zm6-74.23a2.38,2.38,0,0,1,1.05.86l5.51,8.37a2.22,2.22,0,0,1,.36.92l1.15,6.89a2.43,2.43,0,0,1,0,.89l-4.34,20.28a2.17,2.17,0,0,0,0,.25l-2.14,15.92a2.62,2.62,0,0,1-.09.38l-6.57,21.33Zm-14.17-2.49,13.1,2.23-8.89,35.24-6.14-36.93A2.38,2.38,0,0,1,264.57,17.85ZM250,31.45l11.79-12.2,6.09,36.66L249.45,32.35A2.29,2.29,0,0,1,250,31.45Zm-.85,2.12,18.66,23.86L242.24,62.7ZM235.51,91.08a1.21,1.21,0,0,0,.05-.18L242,63.77l25.26-5.2-32.38,34.7Zm32-31.31-17.9,54-.09.06V114L247,121.58l-11.62-6.22-1.08-20Zm-34.05,38.3.93,17.35-7.73,5.4Zm-14.52,48.58,7.26-24.29,8.25-5.77,2,36.9-4.15,16.2-15.13-13.51A45.91,45.91,0,0,1,218.91,146.65Zm-7.37,73.16a3.38,3.38,0,0,0,1-2.16L217,157.43,232,170.78l-15.41,60.16-.14.25.06.07L206.21,271.4Zm-5.37.58,2.56.36a3.38,3.38,0,0,0,1.73-.23l-5.09,49.28-.9-50.18A3.32,3.32,0,0,0,206.17,220.39Zm-1.67,56.48-20.79-20.06,19.81-34.39Zm-1.09-127.23c0,.11,0,.23,0,.34l-.67,18.6-13.44-46.5.22-.93,18.24-3Zm4.44-32.55-18.08,3,8.48-34.36.17,1,.39-3.17,11.8-11.39.31-.3ZM203.24,47.6l5.29,8.07L211,70.42,199,82Zm-9.13-5.27,8.26,4.15L198.25,79.9,192,43.57Zm-1.48-.3-.87.5,0-.18A2.17,2.17,0,0,1,192.63,42Zm-1.8.95v.08l-.48.28ZM191,44.1l6,34.85-4.48-10.82L184.25,48Zm-7,6,8.5,20.52,5.26,12.69-16.31,32.52Zm-1-.42-1,25.68-1.35,34.82-2.38-52.85ZM167.54,113.9l10-52.42,1.8,40,.77,17.1-.25.5.27.14.1,2L167.34,115Zm-.83,4.45.44-2.37,12.9,6.35L162.14,156Zm-8.87,104.79c0-.06,0-.12,0-.19l1.67-30.21,2.29-34,18.31-34.43-2,38.8-20.63,63.19Zm18.09-16,6.47,48.41-25.31-24.43ZM156,239.4l.74-6.5h0l0-.23,19.17,31.52-21.58-10.31Zm-1.77,15.54,20.93,10-22.14.67ZM152.17,273h0l.7-6.14,62,29.42,18.76,67.1-26.47-60.54-.5-2.26-.38,1.88-45.76-4.59-8.4-24.65ZM63.38,283.34,65,285.7l-2.83-2.16ZM62,282.55l.42-.61.33.49Zm2.45.61L97,277.75l21.29,48.62L67.48,287.61Zm54.78,45.17,0,0,42.26,37,48.38,80.35-.55-.47-77.61-80.67L94.29,327.13l-25-36.92ZM131,365.19l25.21,52.72-42.42-47.68L62.55,296.85Zm26.33,55.49L121.5,398.09l-7.07-25.62Zm-24.13-53.2,75.49,78.45,2.88,2.48.72,1.19-.28-.81,27.92,24-80.73-50.91Zm78.18,79.44L193.66,395l49.55,79.28Zm-19.11-56.06-1.6-4.69,16.09-80.75,37.52,168.65ZM160.9,298.91l45.22,4.53L190,384.28Zm4.46,16.16-28.75,4.45,23.28-20.47Zm-13.74-40.26,7.46,22.4-12.76-7.43ZM146,290.74l13.14,7.66-23,20.23ZM165.68,316l23.94,70.21-.31,1.55,0,.19,2.07,3.31,17,49.79L135.8,320.66Zm-31.12,1.74a3.22,3.22,0,0,0,.88-.27l-.86,2.43-1.33-2.19A3.2,3.2,0,0,0,134.56,317.77Zm-4-2.21.78,1,2.49,4.09-.46.41.65-.1,24.73,40.64L120,327.63l-24.08-55ZM101.94,266.5l7.1,20.83L92,266.21l4.64,10.59-32.76,5.44-.73-1.07L96,256.33ZM38.26,223.09l14.66,2.74c.6.22,17,7.95,17.64,8.33l20,14.58a40.43,40.43,0,0,1,3.7,4.6l1.23,2.12L64.64,278.77l20.24-29.1L36.81,223.3C38,223.11,38.24,223.1,38.26,223.09Zm-4.91,27.35L22,232.54c-.35-.55-1.42-2.24-1.12-2.9a.63.63,0,0,1,.4-.31l18.1,26.84ZM22.27,229l12.66-5.25,6.74,34Zm20.86,31L37.4,231.06,54,281.83Zm-7-35.86L83.42,250,62.07,280.71l-.31.24.07.11-1.2,1.72-.93.15.54.41-3.17,4.56ZM59,292.34l-1.56-3.28L61,284l5.71,4.36,23.8,35.09L59.26,292.15Zm34.72,89.13c-.3-.63-4.07-12.57-5.31-16.5-.32-1-.52-1.63-.54-1.68L81.55,343.5l-11-24.7c0-.08-3.34-9.34-3.41-9.5l-6.24-13.11,52.05,74.56,7.72,28,39.07,24.64.43.49-.15-.31,15.19,9.58-40.82,1.63Zm76.73,95.7,0-.05-9.38-9-26-32.42,41-1.64L209.7,559.66l-21.13-52.2-18-30.24Zm13.77,91.47a2.39,2.39,0,0,1-2.47-1.82l-7.9-33.16a3,3,0,0,1-.06-.43l-1-47c0-.26-.56-2.81-1.15-5.17l16,26.81,23.88,59ZM320,559.3a2.34,2.34,0,0,1-1.68.85l-105.7,6.7L177.21,434.41,245,477.17l1.49,2.38L208.32,307.92l27.29,62.4h0l48.47,117.9,36.5,69.35A2.37,2.37,0,0,1,320,559.3Zm.18-4.55L285,487.82,239.06,376.09l50.95,85,21.9,28.65ZM264.39,416.4l66.77-68.35L290.3,459.61Zm66.66-41.07-1.39,28.09a3.47,3.47,0,0,1-.06.45l-5,20.27a3,3,0,0,0-.08.43l-2.61,22.55-2.42,14.64a1.55,1.55,0,0,1,0,.21l-4.58,17.53a3.69,3.69,0,0,0-.09.58l-1.2,14.8-.69-5.42,0-.14L291,460.69l40.87-111.58Zm.88-29.5-59.81,61.23,60.15-72.36Zm2.08-43.4a3.55,3.55,0,0,0-.06.47l-1.54,28.45-22-44,25.11,7.58Zm4.21-20.9a2.85,2.85,0,0,0-.11.39l-2.39,12-24.82-7.49,30-13Zm7-21.5-4,12.19L322,223l13.46,11.25-1-20.47,12,42.44Zm6.36-21a2.09,2.09,0,0,0-.08.23L347,254.4l-11.68-41.35,17.4,23.14Zm11.65-29.16a1.83,1.83,0,0,1-.08.25l-10.09,25-18.53-24.65,31.49-10.68Zm3.11-11.23L348,204.82l16.23-49.4L367.1,196Zm9.39-29.35a1.47,1.47,0,0,1-.08.28L368.2,192l-.3,1.09-2.72-39L376.63,165Zm1.09-5.44-11.8-11.21-3-22.81,2.67,5.13h0l6.65,12.75,5.55,16Zm.19-2.71-4.71-13.57,6.11-10.38Zm2.36-10.17a2.33,2.33,0,0,1,0,.37l-1.05,5.23,1-16.93.4,2.44a2,2,0,0,1,0,.49Z" transform="translate(-19.84 -16.81)"/></svg>